<svg xmlns="http://www.w3.org/2000/svg" viewBox="0 0 96 96" role="img" aria-label="Docling">
  <defs>
    <linearGradient id="bg" x1="12" y1="10" x2="86" y2="88" gradientUnits="userSpaceOnUse">
      <stop stop-color="#0F766E"/>
      <stop offset="1" stop-color="#1D4ED8"/>
    </linearGradient>
    <linearGradient id="page" x1="28" y1="16" x2="70" y2="78" gradientUnits="userSpaceOnUse">
      <stop stop-color="#FFFFFF"/>
      <stop offset="1" stop-color="#E0F2FE"/>
    </linearGradient>
  </defs>
  <rect width="96" height="96" rx="20" fill="url(#bg)"/>
  <path d="M26 16h29l17 17v45a6 6 0 0 1-6 6H26a6 6 0 0 1-6-6V22a6 6 0 0 1 6-6z" fill="url(#page)"/>
  <path d="M55 16v15a4 4 0 0 0 4 4h13z" fill="#BAE6FD"/>
  <path d="M33 45h30M33 56h24M33 67h18" stroke="#0F172A" stroke-width="5" stroke-linecap="round" opacity=".78"/>
  <circle cx="67" cy="69" r="12" fill="#22C55E"/>
  <path d="M61 69l4 4 8-9" fill="none" stroke="#FFFFFF" stroke-width="4" stroke-linecap="round" stroke-linejoin="round"/>
</svg>
